<svg width="1507" height="518" viewBox="0 0 1507 518" xmlns="http://www.w3.org/2000/svg" xmlns:xlink="http://www.w3.org/1999/xlink"><title>Group 10</title><defs><path d="M933.039 271.63v31.204h56.065c9.68 0 17.526 3.4 17.526 7.592v90.19c0 1.948-1.695 3.726-4.482 5.07 16.586.91 33.355 1.836 50.114 2.765v-27h.863l41.406-33.136 41.407 33.136h.216v.173l.323.259h-.323V408.8h16.015v-27.349h1.629l41.406-33.136 41.946 33.568h-1.09v10.815c13.76-4.793 24.89-8.35 27.613-8.35 5.509 0 52.692 14.557 84.13 24.452h53.648s18.888 2.258 34.053 7.051c15.164 4.794 31.422 13.78 35.659 17.588 7.947 7.144 35.837 36.394 35.837 36.394H0l46.422-30.517s26.589-17.489 42.53-17.489c15.94 0 17.339-13.027 29.5-13.027h19.377l29.401-23.528 29.401 23.528h24.784l22.474-17.985 22.474 17.985H285.8V296.006h74.74V408.8h16.015v-73.886h31.269V224.293h26.699a5.336 5.336 0 0 0 5.332-5.34 5.34 5.34 0 0 0-5.332-5.34h-26.7v-9.918h47.291a5.336 5.336 0 0 0 5.333-5.34 5.34 5.34 0 0 0-5.333-5.34h-47.29v-12.207h64.831a5.336 5.336 0 0 0 5.333-5.34 5.34 5.34 0 0 0-5.333-5.34h-64.831v-53.31c0-8.129 7.524-14.718 16.805-14.718h13.7V91.548h25.168V102.1h48.22c9.282 0 16.805 6.59 16.805 14.717v235.25l22.006-17.61 9.063 7.253v-97.344h8.934l69.23-25.413 10.861 25.413h7.7v32.042h22.115V81.97c0-7.267 66.531-84.888 69.608-81.885 3.078 3.003 3.692 78.769 3.692 81.885v239.622h49.602v73.524l6.882.334V244.129h7.022l10.791-12.073 11.712-13.103 22.502 25.176h6.945v21.958h-27.023a2.774 2.774 0 0 0-2.778 2.772 2.777 2.777 0 0 0 2.778 2.771h27.023v126.807l6.881.36V244.128h7.022l10.791-12.073 11.712-13.103 22.503 25.176h6.944v21.958h-27.3a2.774 2.774 0 0 0-2.778 2.772 2.777 2.777 0 0 0 2.778 2.771h27.3zm50.585 133.041V378.4h-.025c-.598-14.003-12.138-25.176-26.287-25.176-14.152 0-25.689 11.17-26.287 25.176h-.024v23.418c17.071.918 34.695 1.874 52.623 2.853zM588.474 297.5c6.885 0 12.468-5.584 12.468-12.473 0-6.888-5.583-12.473-12.469-12.473-6.886 0-12.469 5.585-12.469 12.473 0 6.889 5.583 12.473 12.47 12.473zm34.173 0c6.886 0 12.468-5.584 12.468-12.473 0-6.888-5.582-12.473-12.468-12.473-6.887 0-12.47 5.585-12.47 12.473 0 6.889 5.583 12.473 12.47 12.473zm0 38.804c6.886 0 12.468-5.584 12.468-12.472 0-6.889-5.582-12.473-12.468-12.473-6.887 0-12.47 5.584-12.47 12.473 0 6.888 5.583 12.472 12.47 12.472zm0 36.957c6.886 0 12.468-5.584 12.468-12.473 0-6.889-5.582-12.473-12.468-12.473-6.887 0-12.47 5.584-12.47 12.473 0 6.889 5.583 12.473 12.47 12.473zm-36.021-36.957c6.886 0 12.469-5.584 12.469-12.472 0-6.889-5.583-12.473-12.47-12.473-6.885 0-12.468 5.584-12.468 12.473 0 6.888 5.583 12.472 12.469 12.472zm137.617-219.891c6.887 0 12.469-5.584 12.469-12.473 0-6.888-5.582-12.473-12.469-12.473-6.886 0-12.468 5.585-12.468 12.473 0 6.889 5.582 12.473 12.468 12.473zm.462 21.25a6.466 6.466 0 0 0 6.465-6.467 6.466 6.466 0 1 0-12.93 0 6.466 6.466 0 0 0 6.465 6.467zM1095.071 387.5v8.478c0 2.771 2.238 5 5 5h8.474a5.005 5.005 0 0 0 4.999-5V387.5c0-2.771-2.239-5-5-5h-8.474a5.005 5.005 0 0 0-4.999 5z" id="a"/><filter x="-.2%" y="-.6%" width="100.4%" height="101.3%" filterUnits="objectBoundingBox" id="b"><feMorphology radius="2" in="SourceAlpha" result="shadowSpreadInner1"/><feOffset dx="-4" dy="3" in="shadowSpreadInner1" result="shadowOffsetInner1"/><feComposite in="shadowOffsetInner1" in2="SourceAlpha" operator="arithmetic" k2="-1" k3="1" result="shadowInnerInner1"/><feColorMatrix values="0 0 0 0 0.819607843 0 0 0 0 0.752901881 0 0 0 0 0.603921569 0 0 0 1 0" in="shadowInnerInner1"/></filter><linearGradient x1="50%" y1="0%" x2="50%" y2="100%" id="c"><stop stop-color="#03264B" offset="0%"/><stop stop-color="#FFF" stop-opacity="0" offset="100%"/></linearGradient></defs><g fill="none" fill-rule="evenodd"><g transform="translate(682.22)"><ellipse fill="#FFCABA" cx="126.987" cy="126.114" rx="126.072" ry="126.114"/><ellipse fill="#E39279" cx="122.378" cy="140.897" rx="84.51" ry="84.538"/></g><g opacity=".331" fill="#03264B"><path d="M880.795 512.063l142.384-221.106 99.801 68.392 119.3 152.2"/><path d="M1025.75 292.325l63.614 83.524 33.217-18.736"/><path d="M1088.656 375.984l67.931 135.613 84.465-.659-119.949-154.281z"/><path d="M1118.741 437.074l182.288-47.567-157.719 19.78zM1301.483 389.507l22.893 8.266 85.262 113.378h-296.367z"/><path d="M1119.219 436.595l182.24-47.088 74.21 121.634H913.616z"/></g><path d="M308.513 427.142c-8.432-9.157-19.13-15.048-32.08-17.676 4.12-5.52 6.174-11.565 6.174-18.135 0-9.288-3.766-17.216-11.294-23.788-7.529-6.57-16.615-9.856-27.259-9.856-9.638 0-17.973 2.716-24.999 8.149-5.921-12.441-15.337-22.517-28.237-30.227-12.903-7.709-27.287-11.566-43.152-11.566-21.284 0-39.459 6.573-54.52 19.716-15.062 13.139-22.59 28.999-22.59 47.573 0 1.315.1 3.197.3 5.65-11.646 4.732-21.034 11.894-28.163 21.49C35.565 428.063 32 438.645 32 450.21c0 16.208 6.603 30.074 19.805 41.593 13.203 11.523 29.092 17.284 47.667 17.284h163.865c15.962 0 29.591-4.932 40.888-14.786 11.296-9.856 16.945-21.749 16.945-35.68-.002-11.828-4.221-22.325-12.657-31.48z" fill="#6CADAD" fill-rule="nonzero" opacity=".665"/><g transform="translate(0 48.043)"><use fill="#03264B" xlink:href="#a"/><use fill="#000" filter="url(#b)" xlink:href="#a"/></g><g transform="translate(1205.904 135.815)"><ellipse stroke="#03264B" stroke-width="4" fill="#9AD1B4" cx="62.343" cy="67.908" rx="39.253" ry="39.266"/><path d="M80.75 89.495l2.378-24.357c.109-1.163-.591-2.6-1.93-2.884l-7.132-1.516.96-4.513c1.296-6.101-2.243-11.852-8.063-13.09-5.82-1.236-11.392 2.578-12.69 8.679l-.959 4.513-7.13-1.516c-1.34-.284-2.564.743-2.937 1.85l-7.715 23.122a2.64 2.64 0 0 0 .203 2.106c.35.627.935 1.073 1.631 1.231l40.372 8.582a2.534 2.534 0 0 0 2.026-.445 2.51 2.51 0 0 0 .986-1.762zm-24.59-37.28c1.068-5.023 5.63-8.167 10.394-7.154 4.763 1.012 7.653 5.74 6.585 10.763l-.96 4.513-1.131-.24c-.746-.159-1.403.244-1.89.543-1.918 1.182-4.105 1.592-6.161 1.155-2.019-.43-3.846-1.713-5.148-3.609-.233-.341-.714-1.047-1.537-1.121l-1.132-.24.98-4.61zm17.418 15.46l-.819 3.849-2.83-.602.819-3.849 2.83.602zm-19.809-4.21l-.818 3.848-2.83-.601.818-3.85 2.83.602zm-8.692-6.183c.105-.31.47-.594.707-.544l7.121 1.514-.613 2.887-1.887-.401a.977.977 0 0 0-1.148.761l-1.227 5.774a.977.977 0 0 0 .739 1.163l4.716 1.002a.977.977 0 0 0 1.148-.761l1.227-5.774a.977.977 0 0 0-.739-1.163l-.943-.2.614-2.887 1.103.234c.045.02.146.102.363.43 1.58 2.306 3.83 3.871 6.32 4.4 2.538.54 5.216.043 7.61-1.43.135-.081.397-.247.411-.174l1.15.245-.592 2.79-.944-.2a.977.977 0 0 0-1.147.762l-1.228 5.774a.977.977 0 0 0 .74 1.162l4.715 1.003a.977.977 0 0 0 1.148-.762l1.227-5.774a.977.977 0 0 0-.738-1.163l-1.887-.4.614-2.887 7.13 1.515c.237.05.455.46.426.785l-1.856 19.026-40.333-8.573 6.053-18.134zm33.75 32.076a.546.546 0 0 1-.207.328.561.561 0 0 1-.462.083L37.75 81.18a.586.586 0 0 1-.363-.288.62.62 0 0 1-.062-.496l1.045-3.107 40.787 8.67-.323 3.37-.006.03z" fill="#03264B" fill-rule="nonzero"/><path d="M58.848 28.069V17.064l4.025-.104c2.943-.535 5.174-3.086 5.174-6.153 0-3.456-2.831-6.257-6.324-6.257s-6.325 2.801-6.325 6.257h-4.6C50.798 4.838 55.69 0 61.723 0c6.033 0 10.924 4.838 10.924 10.807 0 4.984-3.411 9.18-8.05 10.429v6.75c1.4.24-6.983.335-5.75.083z" fill="#03264B"/><path d="M55.878 107.636L.462 260.082" stroke="url(#c)" stroke-width="3" stroke-linecap="square"/></g><g transform="translate(1075.676 175.543)"><ellipse stroke="#03264B" stroke-width="4" fill="#9AD1B4" cx="41.101" cy="69.755" rx="41.101" ry="41.114"/><path d="M46.69 45.537l-23.168 6.644a.87.87 0 0 0-.587 1.075L33.992 91.82a.869.869 0 0 0 1.068.6l10.757-3.084a.869.869 0 0 0 .587-1.075L40.05 66.103c-.15-.52.074-.584.264-.638.19-.055.414-.119.563.4l6.353 22.157a.87.87 0 0 0 1.068.601l9.93-2.847a.87.87 0 0 0 .586-1.075L47.758 46.138a.87.87 0 0 0-1.068-.6zm-9.448 4.524l.961 3.353-3.31.95-.961-3.354 3.31-.95zM24.83 53.62l7.447-2.135.961 3.353-7.446 2.135-.962-3.353zm1.442 5.03l4.874-1.398c.191 2.386-1.358 5.225-3.458 6.335l-1.416-4.937zm22.374 28.06L42.533 65.39c-.378-1.316-1.457-1.959-2.699-1.603-1.24.356-1.816 1.473-1.438 2.79l6.113 21.318-9.102 2.61-7.23-25.217c2.992-1.366 5.094-5.217 4.649-8.518l8.406-2.41c1.372 3.035 5.195 5.187 8.457 4.76l7.231 25.216-8.274 2.373zm.555-29.291c-2.358.177-5.177-1.41-6.289-3.54l4.874-1.398 1.415 4.938zm-1.896-6.615l-7.447 2.136-.962-3.354 7.447-2.135.962 3.353z" fill="#03264B" fill-rule="nonzero"/><path d="M36.681 28.069V17.064l4.025-.104c2.944-.535 5.175-3.086 5.175-6.153 0-3.456-2.832-6.257-6.325-6.257-3.493 0-6.325 2.801-6.325 6.257h-4.6C28.632 4.838 33.524 0 39.557 0S50.48 4.838 50.48 10.807c0 4.984-3.41 9.18-8.05 10.429v6.75c1.4.24-6.982.335-5.749.083z" fill="#03264B"/><path d="M42.948 113.284L29.094 214.81" stroke="url(#c)" stroke-width="3" stroke-linecap="square"/></g><g transform="translate(880.795 135.815)"><ellipse stroke="#03264B" stroke-width="4" fill="#9AD1B4" cx="30.941" cy="59.592" rx="30.941" ry="30.951"/><path d="M52.703 50.52c-.779-.568-1.606-.76-2.309-.54l-13.219 3.688a1.819 1.819 0 0 0-.462-1.252c-.25-.27-.702-.597-1.462-.597h-8.659c-.77 0-1.222.328-1.462.597-.298.337-.462.78-.462 1.232l-12.16-3.542c-.77-.24-1.646-.039-2.464.568-.866.635-1.732 1.79-1.732 2.955v11.83c0 1.232.934 2.474 1.79 3.11.568.413 1.154.625 1.712.625.212 0 .414-.029.616-.096l12.238-3.716c0 .058.01.106.029.164.192.914.856 1.54 1.77 1.655.039 0 .077.01.116.01h8.658c.039 0 .077 0 .116-.01.914-.105 1.578-.74 1.77-1.655.02-.058.02-.125.03-.183l13.199 3.744c.202.068.414.097.625.097.558 0 1.155-.212 1.713-.626.866-.635 1.79-1.877 1.79-3.11v-11.83c.009-1.231-.915-2.483-1.78-3.118zm-28.035 8.038h-3.82c-.48 0-.914.346-.98.818a.964.964 0 0 0 .952 1.107h3.848v2.907l-12.796 3.879c-.096.029-.336-.029-.625-.25-.577-.424-1.01-1.175-1.01-1.56V53.64c0-.347.375-.992.943-1.406.336-.25.625-.327.77-.279l12.718 3.697v2.907zm10.583 6.632c-.02.077-.048.096-.077.106H26.67c-.029-.01-.058-.03-.077-.106V53.745h8.659V65.19zm16.307 1.829c-.288.212-.529.279-.654.24L37.175 63.37v-2.887h3.82c.48 0 .914-.347.981-.819a.964.964 0 0 0-.952-1.107h-3.849V55.66l13.758-3.84c.106-.03.337.038.625.25.578.423 1.01 1.174 1.01 1.569v11.82c0 .385-.432 1.136-1.01 1.56z" fill="#03264B" fill-rule="nonzero"/><path d="M28.369 28.069V17.064l4.025-.104c2.943-.535 5.174-3.086 5.174-6.153 0-3.456-2.831-6.257-6.324-6.257s-6.325 2.801-6.325 6.257h-4.6C20.32 4.838 25.21 0 31.244 0c6.033 0 10.924 4.838 10.924 10.807 0 4.984-3.411 9.18-8.05 10.429v6.75c1.4.24-6.983.335-5.75.083z" fill="#03264B"/><path d="M27.246 91.005l-4.618 35.11" stroke="url(#c)" stroke-width="3" stroke-linecap="square"/></g><g transform="translate(526.13 40.652)"><ellipse stroke="#03264B" stroke-width="4" fill="#9AD1B4" cx="48.028" cy="76.685" rx="48.028" ry="48.043"/><path d="M64.899 90.288l.685-.444c.305-.19.508-.508.571-.864 1.016-6.235-7.401-14.173-8.366-15.062a1.325 1.325 0 0 0-.699-.33 1.128 1.128 0 0 1-.749-.585c-.228-.457-.507-1.93 1.676-5.537 5.053-8.331-.241-12.662-.292-12.7-.038-.026-.076-.038-.101-.064l1.18-7.061a1.275 1.275 0 0 0-1.04-1.46 1.275 1.275 0 0 0-1.46 1.04l-1.245 7.38c-3.847.368-5.916 1.371-7.02 2.286-1.105-.927-3.175-1.918-7.034-2.274l-1.245-7.378a1.275 1.275 0 0 0-1.46-1.042 1.275 1.275 0 0 0-1.04 1.46l1.18 7.062c-.038.025-.076.038-.102.064-.05.038-5.357 4.381-.292 12.7 2.159 3.569 1.905 5.042 1.689 5.512a1.15 1.15 0 0 1-.762.61 1.282 1.282 0 0 0-.698.33c-.965.889-9.382 8.826-8.367 15.062.051.356.267.686.572.876l.685.445c-2.361 2.68-4.9 7.62-2.412 12.954.114.241.292.432.52.559.242.127 5.917 3.315 18.765 3.315s18.524-3.188 18.752-3.328a1.3 1.3 0 0 0 .52-.559c2.49-5.346-.037-10.287-2.411-12.967zm.279 11.507c-1.346.635-6.704 2.807-17.14 2.807-10.36 0-15.794-2.185-17.152-2.82-2.412-5.867 2.895-10.541 3.123-10.732a1.269 1.269 0 0 0-.14-2.032l-1.51-.965c-.127-4.013 5.027-9.78 7.389-12.027a3.597 3.597 0 0 0 2.26-1.905c.901-1.88.317-4.47-1.79-7.963-3.2-5.283-1.372-8.204-.597-9.106 6.17.317 7.173 2.197 7.186 2.197a1.3 1.3 0 0 0 1.206.978c.558.013 1.066-.343 1.206-.89.013-.025.94-1.955 7.211-2.285.775.889 2.616 3.823-.596 9.106-2.108 3.48-2.705 6.083-1.803 7.95a3.597 3.597 0 0 0 2.26 1.905c2.361 2.235 7.516 8.014 7.389 12.027l-1.511.965a1.272 1.272 0 0 0-.14 2.033c.09.063 5.587 4.851 3.149 10.757z" fill="#03264B" fill-rule="nonzero"/><path d="M47.765 28.069V17.064l4.024-.104c2.944-.535 5.175-3.086 5.175-6.153 0-3.456-2.832-6.257-6.325-6.257-3.493 0-6.324 2.801-6.324 6.257h-4.6C39.715 4.838 44.606 0 50.64 0c6.034 0 10.925 4.838 10.925 10.807 0 4.984-3.411 9.18-8.05 10.429v6.75c1.399.24-6.983.335-5.75.083z" fill="#03264B"/><path d="M64.19 123.342l16.626 90.544" stroke="url(#c)" stroke-width="3" stroke-linecap="square"/></g><g transform="translate(177.006 167.228)"><ellipse stroke="#03264B" stroke-width="4" fill="#9AD1B4" cx="45.257" cy="72.989" rx="44.795" ry="44.81"/><path d="M18.725 80.46l30.341-21.858c.585-.423 1.382-.261 1.801.355.086.131.163.278.205.448.329 1.318 2.726 2.148 7.325 1.002 3.675-.916 6.324-3.019 5.91-4.676-.179-.718.237-1.446.925-1.617l2.962-.739c2.559-.652 4.677.817 5.4 3.714l4.992 20.022c.179.717-.237 1.445-.925 1.616L20.168 93.062c-.687.171-1.396-.276-1.575-.993l-1.897-7.61c-.368-1.475.318-2.824 2.03-4zm11.706-5.123l-10.219 7.358c-.557.375-.83.665-.947.888l26.122-6.513c-.298-1.09-.538-1.252-1.963-.897l-7.911 1.973c-1.688.42-3.904-1.176-5.082-2.81zm40.663-17.625c-.54-2.166-1.79-1.855-2.252-1.74l-1.925.48c-.215 2.813-3.222 5.393-7.872 6.552-5.887 1.468-8.493.066-9.64-1.34L45.062 64.8l2 1.206c.624.372.845 1.204.497 1.831a1.256 1.256 0 0 1-1.753.479l-3.061-1.843-1.543 1.106 1.165.68c.605.403.797 1.229.421 1.85a1.258 1.258 0 0 1-1.662.47l-2.258-1.337-6.359 4.58c.619.83 1.887 1.761 2.35 1.701l7.911-1.972c1.737-.433 4.141-.59 5.113 2.884l18.436-4.597c-.422-4.192 2.053-8.538 5.768-10.144l-.993-3.98zm1.653 6.63c-2.375 1.23-3.998 4.09-3.888 6.876l5.275-1.315-1.387-5.56zm3.014 12.087l-.977-3.916-54.993 13.711.976 3.916 54.994-13.711z" fill="#03264B" fill-rule="nonzero"/><path d="M43.147 28.069V17.064l4.024-.104c2.944-.535 5.175-3.086 5.175-6.153 0-3.456-2.832-6.257-6.325-6.257-3.493 0-6.324 2.801-6.324 6.257h-4.6C35.097 4.838 39.988 0 46.021 0c6.034 0 10.925 4.838 10.925 10.807 0 4.984-3.411 9.18-8.05 10.429v6.75c1.399.24-6.983.335-5.75.083z" fill="#03264B"/><path d="M74.35 107.74l30.48 53.483" stroke="url(#c)" stroke-width="3" stroke-linecap="square"/></g></g></svg>