<?xml version="1.0" encoding="UTF-8"?>
<svg width="94px" height="133px" viewBox="0 0 94 133" version="1.1" xmlns="http://www.w3.org/2000/svg" xmlns:xlink="http://www.w3.org/1999/xlink">
    <!-- Generator: Sketch 43.2 (39069) - http://www.bohemiancoding.com/sketch -->
    <title>Combined Shape</title>
    <desc>Created with Sketch.</desc>
    <defs></defs>
    <g id="Welcome" stroke="none" stroke-width="1" fill="none" fill-rule="evenodd">
        <g id="Desktop-HD" transform="translate(-274.000000, -21.000000)" fill="#03264B">
            <path d="M317.647799,39.4688347 L317.647799,39.4688347 L322.005415,39.4688347 L322.005415,39.3571744 C325.192847,38.7781687 327.608064,36.0164796 327.608064,32.6969286 C327.608064,28.9569082 324.542253,25.9250226 320.760382,25.9250226 C316.978512,25.9250226 313.9127,28.9569082 313.9127,32.6969286 L308.932568,32.6969286 C308.932568,26.2368933 314.228061,21 320.760382,21 C327.292704,21 332.588197,26.2368933 332.588197,32.6969286 C332.588197,38.0916548 328.89523,42.6333871 323.872965,43.9846128 L323.872965,51.2897799 C325.38736,51.5506972 326.814045,52.0228469 328.010982,52.7062519 L360.989018,71.5354353 C364.861076,73.7462311 368,79.1223236 368,83.544435 L368,121.202802 C368,125.624393 364.861531,131.000746 360.989018,133.211801 L328.010982,152.040985 C324.138924,154.25178 317.861531,154.25204 313.989018,152.040985 L281.010982,133.211801 C277.138924,131.001006 274,125.624913 274,121.202802 L274,83.544435 C274,79.1228434 277.138469,73.746491 281.010982,71.5354353 L313.989018,52.7062519 C315.058818,52.0954375 316.312228,51.6533634 317.647799,51.3800461 L317.647799,39.4688347 Z M301.439433,120.016348 L301.439433,120.731707 L318.076811,120.731707 L318.076811,120.016348 L312.341566,120.016348 L312.341566,102.490039 L329.547301,102.490039 L329.547301,120.016348 L323.812056,120.016348 L323.812056,120.731707 L340.449433,120.731707 L340.449433,120.016348 L334.714188,120.016348 L334.714188,85.065925 L340.449433,85.065925 L340.449433,84.3505655 L323.812056,84.3505655 L323.812056,85.065925 L329.547301,85.065925 L329.547301,101.77468 L312.341566,101.77468 L312.341566,85.065925 L318.076811,85.065925 L318.076811,84.3505655 L301.439433,84.3505655 L301.439433,85.065925 L307.174678,85.065925 L307.174678,120.016348 L301.439433,120.016348 Z" id="Combined-Shape"></path>
        </g>
    </g>
</svg>