<?xml version="1.0" encoding="UTF-8"?>
<svg width="1507px" height="518px" viewBox="0 0 1507 518" version="1.1" xmlns="http://www.w3.org/2000/svg" xmlns:xlink="http://www.w3.org/1999/xlink">
    <!-- Generator: Sketch 43.2 (39069) - http://www.bohemiancoding.com/sketch -->
    <title>Group 10</title>
    <desc>Created with Sketch.</desc>
    <defs>
        <path d="M933.038575,271.630435 L933.038575,302.834056 L989.10396,302.834056 C998.783382,302.834056 1006.62984,306.233166 1006.62984,310.426173 L1006.62984,400.615406 C1006.62984,402.564279 1004.93476,404.341645 1002.14842,405.685918 C1018.73427,406.596278 1035.50281,407.521987 1052.26227,408.451485 L1052.26223,381.451477 L1053.12463,381.451477 L1094.53123,348.315217 L1135.93782,381.451477 L1136.15373,381.451477 L1136.15373,381.624265 L1136.47698,381.882947 L1136.15373,381.882947 L1136.15373,408.800301 L1152.16938,408.800301 L1152.16938,381.451477 L1153.79777,381.451477 L1195.20436,348.315217 L1237.15012,381.882947 L1236.06089,381.882947 L1236.06089,392.697603 C1249.82022,387.904891 1260.94946,384.347826 1263.67268,384.347826 C1269.18171,384.347826 1316.36528,398.904976 1347.80226,408.800301 L1401.45112,408.800301 C1401.45112,408.800301 1420.33924,411.057958 1435.50368,415.851471 C1450.66811,420.644984 1466.92597,429.631309 1471.16285,433.439413 C1479.11044,440.582687 1507,469.832537 1507,469.832537 L0,469.832537 L46.4220264,439.316419 C46.4220264,439.316419 73.0110094,421.827322 88.9517982,421.827322 C104.892587,421.827322 106.290751,408.800301 118.452671,408.800301 L137.829084,408.800301 L167.230036,385.271739 L196.630988,408.800301 L221.415496,408.800301 L243.889397,390.815217 L266.363298,408.800301 L285.798928,408.800301 L285.798928,296.006346 L360.538633,296.006346 L360.538633,408.800301 L376.554284,408.800301 L376.554284,334.914397 L407.822936,334.914397 L407.822936,280.807737 L407.822936,224.293468 L434.521743,224.293468 C437.467026,224.293468 439.854238,221.902525 439.854238,218.953148 C439.854238,216.009772 437.466799,213.612827 434.521743,213.612827 L407.822936,213.612827 L407.822936,203.695089 L455.113294,203.695089 C458.058577,203.695089 460.445789,201.304146 460.445789,198.354768 C460.445789,195.411392 458.05835,193.014447 455.113294,193.014447 L407.822936,193.014447 L407.822936,180.808 L472.654245,180.808 C475.599528,180.808 477.98674,178.417057 477.98674,175.467679 C477.98674,172.524303 475.599301,170.127359 472.654245,170.127359 L407.822936,170.127359 L407.822936,116.817485 C407.822936,108.689477 415.346646,102.100451 424.627613,102.100451 L438.328938,102.100451 L438.328938,91.5483545 L463.49639,91.5483545 L463.49639,102.100451 L511.716567,102.100451 C520.99755,102.100451 528.521243,108.689477 528.521243,116.817485 L528.521243,352.066839 L550.526842,334.456522 L559.590296,341.709689 L559.590296,244.366375 L568.523868,244.366375 L637.753534,218.953148 L648.615279,244.366375 L656.314282,244.366375 L656.314282,276.408299 L678.429644,276.408299 L678.429644,264.162991 L678.429644,81.9701927 C678.429644,74.7025355 744.961149,-2.91815698 748.038379,0.084894324 C751.115609,3.08794563 751.730442,78.8539015 751.730442,81.9701927 L751.730442,321.591637 L801.332486,321.591637 L801.332486,395.116448 C803.579462,395.224624 805.873962,395.335855 808.214211,395.450034 L808.214211,351.703269 L808.214211,244.128945 L815.235739,244.128945 L826.027006,232.055869 L837.738599,218.953148 L860.241459,244.128945 L867.185531,244.128945 L867.185531,266.086957 L840.16277,266.086957 C838.627846,266.086957 837.385097,267.327906 837.385097,268.858696 C837.385097,270.38637 838.628704,271.630435 840.16277,271.630435 L867.185531,271.630435 L867.185531,398.4374 C869.459983,398.555779 871.754171,398.675463 874.067256,398.796402 L874.067256,351.703269 L874.067256,244.128945 L881.088784,244.128945 L891.88005,232.055869 L903.591644,218.953148 L926.094504,244.128945 L933.038575,244.128945 L933.038575,266.086957 L905.738851,266.086957 C904.203926,266.086957 902.961177,267.327906 902.961177,268.858696 C902.961177,270.38637 904.204784,271.630435 905.738851,271.630435 L933.038575,271.630435 Z M983.623723,404.671425 L983.623723,378.399865 L983.599368,378.399865 C983.001227,364.397009 971.46093,353.224068 957.312296,353.224068 C943.160491,353.224068 931.623102,364.3947 931.02521,378.399855 L931.000869,378.399865 L931.000869,401.818327 C948.072292,402.735892 965.696407,403.691937 983.623723,404.671425 Z M588.473075,297.5 C595.359343,297.5 600.941766,291.915726 600.941766,285.027174 C600.941766,278.138622 595.359343,272.554348 588.473075,272.554348 C581.586806,272.554348 576.004383,278.138622 576.004383,285.027174 C576.004383,291.915726 581.586806,297.5 588.473075,297.5 Z M622.646525,297.5 C629.532793,297.5 635.115216,291.915726 635.115216,285.027174 C635.115216,278.138622 629.532793,272.554348 622.646525,272.554348 C615.760257,272.554348 610.177833,278.138622 610.177833,285.027174 C610.177833,291.915726 615.760257,297.5 622.646525,297.5 Z M622.646525,336.304348 C629.532793,336.304348 635.115216,330.720073 635.115216,323.831522 C635.115216,316.94297 629.532793,311.358696 622.646525,311.358696 C615.760257,311.358696 610.177833,316.94297 610.177833,323.831522 C610.177833,330.720073 615.760257,336.304348 622.646525,336.304348 Z M622.646525,373.26087 C629.532793,373.26087 635.115216,367.676595 635.115216,360.788043 C635.115216,353.899492 629.532793,348.315217 622.646525,348.315217 C615.760257,348.315217 610.177833,353.899492 610.177833,360.788043 C610.177833,367.676595 615.760257,373.26087 622.646525,373.26087 Z M586.625861,336.304348 C593.512129,336.304348 599.094552,330.720073 599.094552,323.831522 C599.094552,316.94297 593.512129,311.358696 586.625861,311.358696 C579.739593,311.358696 574.15717,316.94297 574.15717,323.831522 C574.15717,330.720073 579.739593,336.304348 586.625861,336.304348 Z M724.243269,116.413043 C731.129537,116.413043 736.71196,110.828769 736.71196,103.940217 C736.71196,97.0516658 731.129537,91.4673913 724.243269,91.4673913 C717.357001,91.4673913 711.774577,97.0516658 711.774577,103.940217 C711.774577,110.828769 717.357001,116.413043 724.243269,116.413043 Z M724.705072,137.663043 C728.27573,137.663043 731.170319,134.767494 731.170319,131.195652 C731.170319,127.623811 728.27573,124.728261 724.705072,124.728261 C721.134415,124.728261 718.239825,127.623811 718.239825,131.195652 C718.239825,134.767494 721.134415,137.663043 724.705072,137.663043 Z M1095.07138,387.500483 L1095.07138,395.977777 C1095.07138,398.749351 1097.30943,400.978261 1100.07021,400.978261 L1108.54469,400.978261 C1111.29694,400.978261 1113.54352,398.739468 1113.54352,395.977777 L1113.54352,387.500483 C1113.54352,384.72891 1111.30547,382.5 1108.54469,382.5 L1100.07021,382.5 C1097.31796,382.5 1095.07138,384.738793 1095.07138,387.500483 Z" id="path-1"></path>
        <filter x="-0.2%" y="-0.6%" width="100.4%" height="101.3%" filterUnits="objectBoundingBox" id="filter-2">
            <feMorphology radius="2" operator="erode" in="SourceAlpha" result="shadowSpreadInner1"></feMorphology>
            <feOffset dx="-4" dy="3" in="shadowSpreadInner1" result="shadowOffsetInner1"></feOffset>
            <feComposite in="shadowOffsetInner1" in2="SourceAlpha" operator="arithmetic" k2="-1" k3="1" result="shadowInnerInner1"></feComposite>
            <feColorMatrix values="0 0 0 0 0.819607843   0 0 0 0 0.752901881   0 0 0 0 0.603921569  0 0 0 1 0" type="matrix" in="shadowInnerInner1"></feColorMatrix>
        </filter>
        <linearGradient x1="50%" y1="0%" x2="50%" y2="100%" id="linearGradient-3">
            <stop stop-color="#03264B" offset="0%"></stop>
            <stop stop-color="#FFFFFF" stop-opacity="0" offset="100%"></stop>
        </linearGradient>
    </defs>
    <g id="Welcome" stroke="none" stroke-width="1" fill="none" fill-rule="evenodd">
        <g id="Desktop-HD-Copy-2" transform="translate(-34.000000, -154.000000)">
            <g id="Group-10" transform="translate(34.000000, 154.000000)">
                <g id="Group-9" transform="translate(682.219161, 0.000000)">
                    <ellipse id="Oval-2-Copy" fill="#FFCABA" cx="126.986532" cy="126.11413" rx="126.072323" ry="126.11413"></ellipse>
                    <ellipse id="Oval-2" fill="#E39279" cx="122.377896" cy="140.896739" rx="84.5100188" ry="84.5380435"></ellipse>
                </g>
                <g id="Group-2" transform="translate(0.000000, 48.043478)">
                    <g id="Group-6" opacity="0.331351902" transform="translate(880.794615, 242.913043)" fill="#03264B">
                        <polyline id="Path-2" points="0 221.106259 142.384851 0 242.185749 68.3921995 361.484675 220.59192"></polyline>
                        <polyline id="Path-3" points="144.956144 1.36876006 208.56961 84.8927474 241.786068 66.1564872"></polyline>
                        <polygon id="Path-4" points="207.86164 85.027215 275.792624 220.640695 360.257021 219.981807 240.308465 65.7004831"></polygon>
                        <polygon id="Path-5" points="237.946877 146.117009 420.234822 98.5507246 262.515829 118.330659"></polygon>
                        <polygon id="Path-6-Copy" points="420.688723 98.5507246 443.581219 106.816873 528.843772 220.19425 232.476834 220.19425"></polygon>
                        <polygon id="Path-6" points="238.424042 145.638294 420.663485 98.5507246 494.875206 220.184202 32.8202589 220.184202"></polygon>
                    </g>
                    <path d="M308.513452,379.098269 C300.081154,369.941333 289.383186,364.050293 276.432737,361.422847 C280.552615,355.902356 282.606752,349.857112 282.606752,343.287115 C282.606752,333.999451 278.840835,326.071081 271.313221,319.499243 C263.784025,312.929707 254.697611,309.643557 244.053977,309.643557 C234.415783,309.643557 226.081074,312.359843 219.055126,317.792416 C213.13379,305.351172 203.71768,295.275458 190.817872,287.565275 C177.914899,279.856933 163.530669,276 147.666237,276 C126.381607,276 108.207195,282.572759 93.1461652,295.715054 C78.0840808,308.854127 70.5554124,324.714089 70.5554124,343.288496 C70.5554124,344.603139 70.6561674,346.485345 70.8566224,348.938794 C59.2101859,353.670315 49.821506,360.83227 42.6932201,370.428801 C35.5654617,380.019809 32,390.601403 32,402.166677 C32,418.374633 38.6028827,432.240075 51.8049556,443.759779 C65.007556,455.282705 80.8973087,461.043478 99.4721035,461.043478 L263.336694,461.043478 C279.298716,461.043478 292.928075,456.111263 304.225298,446.257878 C315.520938,436.401732 321.169549,424.508717 321.169549,410.576991 C321.167967,398.7498 316.948916,388.252443 308.513452,379.098269 Z" id="Shape" fill="#6CADAD" fill-rule="nonzero" opacity="0.66479846"></path>
                    <g id="Combined-Shape">
                        <use fill="#03264B" fill-rule="evenodd" xlink:href="#path-1"></use>
                        <use fill="black" fill-opacity="1" filter="url(#filter-2)" xlink:href="#path-1"></use>
                    </g>
                </g>
                <g id="Group-8" transform="translate(1205.904195, 135.815217)">
                    <ellipse id="Oval-Copy" stroke="#03264B" stroke-width="4" fill="#9AD1B4" cx="62.3434565" cy="67.9076087" rx="39.2532874" ry="39.2663043"></ellipse>
                    <path d="M85.3820771,85.1213578 L82.6434101,60.8021703 C82.508434,59.6412722 81.5248175,58.382057 80.1554388,58.382057 L72.8651042,58.382057 L72.8651042,53.7680704 C72.8651042,47.5308371 68.2073904,42.6414519 62.2575046,42.6414519 C56.3076188,42.6414519 51.6498146,47.5309293 51.6498146,53.7681626 L51.6498146,58.3821493 L44.35948,58.3821493 C42.9901013,58.3821493 42.0064847,59.6413645 41.8715087,60.8022626 L39.1327513,85.0230407 C39.055635,85.7608801 39.2870742,86.488851 39.769209,87.0398326 C40.2417609,87.5809455 40.9071486,87.8957263 41.6207226,87.9055949 L82.8940154,87.9055949 C83.6172628,87.9055949 84.301907,87.5908141 84.7841322,87.0497012 C85.2470106,86.5183645 85.4591934,85.8199073 85.3820771,85.1213578 Z M53.5784444,53.7681626 C53.5784444,48.6328002 57.3875177,44.6090852 62.2574142,44.6090852 C67.1273107,44.6090852 70.9363839,48.6328002 70.9363839,53.7681626 L70.9363839,58.3821493 L69.779188,58.3821493 C69.0173372,58.3821493 68.4580861,58.9133936 68.043394,59.3069387 C66.4136462,60.8612897 64.3596234,61.7171835 62.2574142,61.7171835 C60.1937179,61.7171835 58.1396951,60.8416448 56.4714343,59.257688 C56.1724619,58.9724208 55.555351,58.3821493 54.7356404,58.4804664 L53.5784444,58.4804664 L53.5784444,53.7681626 L53.5784444,53.7681626 Z M73.8293739,65.2685891 L73.8293739,69.2037634 L70.9363839,69.2037634 L70.9363839,65.2685891 L73.8293739,65.2685891 Z M53.5784444,65.2685891 L53.5784444,69.2037634 L50.6854545,69.2037634 L50.6854545,65.2685891 L53.5784444,65.2685891 Z M43.790465,61.0285026 C43.8290684,60.7038532 44.1279504,60.3496903 44.369063,60.3496903 L51.6497242,60.3496903 L51.6497242,63.301048 L49.7210944,63.301048 C49.1906828,63.301048 48.7567343,63.7437517 48.7567343,64.2848647 L48.7567343,70.1875801 C48.7567343,70.7286931 49.1906828,71.1713967 49.7210944,71.1713967 L54.5427141,71.1713967 C55.0731257,71.1713967 55.5070742,70.7286931 55.5070742,70.1875801 L55.5070742,64.2848647 C55.5070742,63.7437517 55.0731257,63.301048 54.5427141,63.301048 L53.578354,63.301048 L53.578354,60.3496903 L54.7066201,60.3496903 C54.7548064,60.3595589 54.870526,60.4185861 55.150242,60.6939846 C57.1753349,62.6222357 59.7019096,63.6847245 62.2477407,63.6847245 C64.8417582,63.6847245 67.3586595,62.6418807 69.3934259,60.7038532 C69.5091455,60.5956675 69.7309112,60.3792039 69.7598411,60.4480997 L70.9362935,60.4480997 L70.9362935,63.301048 L69.9719334,63.301048 C69.4415218,63.301048 69.0075733,63.7437517 69.0075733,64.2848647 L69.0075733,70.1875801 C69.0075733,70.7286931 69.4415218,71.1713967 69.9719334,71.1713967 L74.7935532,71.1713967 C75.3239648,71.1713967 75.7579133,70.7286931 75.7579133,70.1875801 L75.7579133,64.2848647 C75.7579133,63.7437517 75.3239648,63.301048 74.7935532,63.301048 L72.8649234,63.301048 L72.8649234,60.3496903 L80.155258,60.3496903 C80.3963706,60.3496903 80.6952526,60.7038532 80.7338559,61.0285026 L82.8746685,80.0253776 L41.6400695,80.0253776 L43.790465,61.0285026 Z M83.4727037,85.38698 C83.4727037,85.5246793 83.4245174,85.6526022 83.3377277,85.7510115 C83.2220081,85.8690658 83.0676852,85.9379616 82.9037792,85.928093 L41.5917927,85.928093 C41.4374698,85.9182244 41.2832372,85.8494209 41.1771007,85.721498 C41.0613811,85.593575 40.9938478,85.4164936 41.0131947,85.2492807 L41.3892834,81.9929187 L83.0869416,81.9929187 L83.4727037,85.3574664 L83.4727037,85.38698 L83.4727037,85.38698 Z" id="Shape" fill="#03264B" fill-rule="nonzero" transform="translate(62.257884, 65.273523) rotate(12.000000) translate(-62.257884, -65.273523) "></path>
                    <path d="M58.847819,28.0685208 L58.847819,17.0635973 L62.8725425,16.9604329 C65.816476,16.4254819 68.047187,13.8739214 68.047187,10.8069449 C68.047187,7.35149127 65.2155826,4.5502926 61.7226215,4.5502926 C58.2296604,4.5502926 55.398056,7.35149127 55.398056,10.8069449 L50.7983719,10.8069449 C50.7983719,4.83843406 55.6893251,0 61.7226215,0 C67.7559179,0 72.646871,4.83843406 72.646871,10.8069449 C72.646871,15.7912028 69.2360217,19.9873685 64.597424,21.2357835 L64.597424,27.9851227 C65.9961297,28.2261877 57.614276,28.3210423 58.847819,28.0685208 Z" id="Combined-Shape-Copy-5" fill="#03264B"></path>
                    <path d="M55.8782091,107.63587 L0.461803381,260.081522" id="Line" stroke="url(#linearGradient-3)" stroke-width="3" stroke-linecap="square"></path>
                </g>
                <g id="Group-7" transform="translate(1075.675642, 175.543478)">
                    <ellipse id="Oval-Copy-4" stroke="#03264B" stroke-width="4" fill="#9AD1B4" cx="41.1005009" cy="69.7554348" rx="41.1005009" ry="41.1141304"></ellipse>
                    <path d="M52.925954,48.0480754 L28.8242469,48.0480754 C28.3507926,48.0480754 27.9634429,48.4405196 27.9634429,48.9202008 L27.9634429,89.0367431 C27.9634429,89.5163426 28.3507926,89.9087867 28.8242469,89.9087867 L40.0143771,89.9087867 C40.4877507,89.9087867 40.8751004,89.5163426 40.8751004,89.0366613 L40.8751004,65.9871072 C40.8751004,65.4464336 41.1075103,65.4464336 41.3054621,65.4464336 C41.503414,65.4464336 41.7358238,65.4464336 41.7358238,65.9871072 L41.7358238,89.0366613 C41.7358238,89.5163426 42.1231735,89.9087867 42.5966279,89.9087867 L52.925954,89.9087867 C53.3994083,89.9087867 53.786758,89.5163426 53.786758,89.0366613 L53.786758,48.9202008 C53.786758,48.4405196 53.3994083,48.0480754 52.925954,48.0480754 Z M42.5967086,49.7922445 L42.5967086,53.2806644 L39.153573,53.2806644 L39.153573,49.7922445 L42.5967086,49.7922445 Z M29.6849703,49.7922445 L37.4319649,49.7922445 L37.4319649,53.2806644 L29.6849703,53.2806644 L29.6849703,49.7922445 Z M29.6849703,55.0248334 L34.7549747,55.0248334 C34.2815204,57.3707502 32.0090687,59.6730893 29.6849703,60.1615188 L29.6849703,55.0248334 Z M43.457432,88.1646177 L43.457432,65.9871072 C43.457432,64.6178858 42.5966279,63.7021828 41.3054621,63.7021828 C40.0142964,63.7021828 39.1534923,64.6178858 39.1534923,65.9871072 L39.1534923,88.1645359 L29.6849703,88.1645359 L29.6849703,61.9318508 C32.938708,61.4435031 36.0203172,58.3213644 36.5023255,55.0248334 L45.2477947,55.0248334 C45.729803,58.3213644 48.8114122,61.4435031 52.0651499,61.9318508 L52.0651499,88.1646177 L43.457432,88.1646177 Z M52.0652306,60.1615188 C49.7497669,59.6818375 47.4773152,57.3794984 46.9952261,55.0248334 L52.0652306,55.0248334 L52.0652306,60.1615188 Z M52.0652306,53.2806644 L44.318236,53.2806644 L44.318236,49.7922445 L52.0652306,49.7922445 L52.0652306,53.2806644 Z" id="Shape" fill="#03264B" fill-rule="nonzero" transform="translate(40.875100, 68.978431) rotate(-16.000000) translate(-40.875100, -68.978431) "></path>
                    <path d="M36.6812567,28.0685208 L36.6812567,17.0635973 L40.7059802,16.9604329 C43.6499137,16.4254819 45.8806247,13.8739214 45.8806247,10.8069449 C45.8806247,7.35149127 43.0490202,4.5502926 39.5560592,4.5502926 C36.0630981,4.5502926 33.2314937,7.35149127 33.2314937,10.8069449 L28.6318096,10.8069449 C28.6318096,4.83843406 33.5227628,0 39.5560592,0 C45.5893556,0 50.4803087,4.83843406 50.4803087,10.8069449 C50.4803087,15.7912028 47.0694594,19.9873685 42.4308617,21.2357835 L42.4308617,27.9851227 C43.8295674,28.2261877 35.4477137,28.3210423 36.6812567,28.0685208 Z" id="Combined-Shape-Copy-4" fill="#03264B"></path>
                    <path d="M42.9477145,113.283873 L29.093613,214.809783" id="Line-Copy" stroke="url(#linearGradient-3)" stroke-width="3" stroke-linecap="square"></path>
                </g>
                <g id="Group-5" transform="translate(880.794615, 135.815217)">
                    <ellipse id="Oval-Copy-2" stroke="#03264B" stroke-width="4" fill="#9AD1B4" cx="30.9408265" cy="59.5923913" rx="30.9408265" ry="30.951087"></ellipse>
                    <path d="M52.7033109,50.5199166 C51.9240177,49.9520195 51.09665,49.7594416 50.394294,49.9808971 L37.1751722,53.6675809 C37.1848232,53.2055384 37.0212077,52.7627177 36.7133688,52.4161858 C36.4632554,52.146631 36.0110128,51.819411 35.2510215,51.819411 L26.5922081,51.819411 C25.8225659,51.819411 25.3703233,52.1467212 25.1298608,52.4161858 C24.8315827,52.7530617 24.6680574,53.1958825 24.6680574,53.648269 L12.507205,50.1059735 C11.7375627,49.8652963 10.8620304,50.0674399 10.0442235,50.6738706 C9.1783422,51.3092692 8.31246086,52.4643754 8.31246086,53.6290473 L8.31246086,65.4592295 C8.31246086,66.6913127 9.2457186,67.9330518 10.101949,68.5683602 C10.6695522,68.9823034 11.2564574,69.1940127 11.8144999,69.1940127 C12.0261899,69.1940127 12.2282288,69.165135 12.4302678,69.0977237 L24.6680574,65.3821623 C24.6680574,65.4399176 24.6777084,65.488017 24.6969201,65.5457723 C24.8893081,66.4602012 25.5531505,67.0859439 26.4671965,67.2014545 C26.5057102,67.2014545 26.5441337,67.2111105 26.5826473,67.2111105 L35.2414607,67.2111105 C35.2799744,67.2111105 35.3183979,67.2111105 35.3569116,67.2014545 C36.2708674,67.0955999 36.9347097,66.4602915 37.1271879,65.5457723 C37.1463997,65.488017 37.1463997,65.4206057 37.1560507,65.3628504 L50.3559607,69.1072894 C50.5579997,69.1747007 50.7696896,69.2035784 50.9812894,69.2035784 C51.5393319,69.2035784 52.1357978,68.9917788 52.6938403,68.577926 C53.5597217,67.9426176 54.4833284,66.7008784 54.4833284,65.4687953 L54.4833284,53.6387033 C54.492799,52.4066201 53.5691922,51.155225 52.7033109,50.5199166 Z M24.6679672,58.5575604 L20.8484384,58.5575604 C20.3674232,58.5575604 19.9344826,58.9040923 19.8671062,59.3757907 C19.780518,59.9725655 20.2423214,60.4827975 20.8195756,60.4827975 L24.6679672,60.4827975 L24.6679672,63.3897846 L11.8722253,67.268956 C11.7759862,67.2978337 11.5355238,67.2400784 11.2468966,67.0187131 C10.6696424,66.5952043 10.2367018,65.8443853 10.2367018,65.4593198 L10.2367018,53.6387033 C10.2367018,53.2921714 10.611917,52.647207 11.1795203,52.2333542 C11.5162218,51.9831112 11.8048489,51.906044 11.9491625,51.9542336 L24.6679672,55.6505733 L24.6679672,58.5575604 Z M35.2510215,65.1897649 C35.2318098,65.2667419 35.2029471,65.2860539 35.1740843,65.2956196 L26.6691453,65.2956196 C26.6402826,65.2859636 26.6114198,65.2667419 26.5922081,65.1897649 L26.5922081,53.7445579 L35.2510215,53.7445579 L35.2510215,65.1897649 L35.2510215,65.1897649 Z M51.5584534,67.0187131 C51.2698263,67.2305127 51.0292736,67.2978337 50.904262,67.2593903 L37.1751722,63.3704727 L37.1751722,60.4827073 L40.9947011,60.4827073 C41.4757162,60.4827073 41.9086569,60.1361754 41.9760332,59.664477 C42.0626214,59.0677022 41.600818,58.5574702 41.0235638,58.5574702 L37.1751722,58.5574702 L37.1751722,55.660139 L50.9330345,51.819411 C51.0388344,51.7905334 51.2697361,51.8579447 51.5583632,52.069654 C52.1356174,52.4931628 52.5685581,53.2439818 52.5685581,53.6387033 L52.5686483,65.4593198 C52.5686483,65.8443853 52.1357076,66.5952043 51.5584534,67.0187131 Z" id="Shape" fill="#03264B" fill-rule="nonzero"></path>
                    <path d="M28.3687958,28.0685208 L28.3687958,17.0635973 L32.3935193,16.9604329 C35.3374528,16.4254819 37.5681638,13.8739214 37.5681638,10.8069449 C37.5681638,7.35149127 34.7365594,4.5502926 31.2435983,4.5502926 C27.7506372,4.5502926 24.9190328,7.35149127 24.9190328,10.8069449 L20.3193488,10.8069449 C20.3193488,4.83843406 25.2103019,0 31.2435983,0 C37.2768947,0 42.1678478,4.83843406 42.1678478,10.8069449 C42.1678478,15.7912028 38.7569986,19.9873685 34.1184008,21.2357835 L34.1184008,27.9851227 C35.5171066,28.2261877 27.1352528,28.3210423 28.3687958,28.0685208 Z" id="Combined-Shape-Copy-3" fill="#03264B"></path>
                    <path d="M27.2463995,91.0054348 L22.6283657,126.11413" id="Line-Copy-2" stroke="url(#linearGradient-3)" stroke-width="3" stroke-linecap="square"></path>
                </g>
                <g id="Group-4" transform="translate(526.129618, 40.652174)">
                    <ellipse id="Oval" stroke="#03264B" stroke-width="4" fill="#9AD1B4" cx="48.0275517" cy="76.6847826" rx="48.0275517" ry="48.0434783"></ellipse>
                    <path d="M64.8985123,90.288408 L65.5840976,89.8439395 C65.8888021,89.653436 66.0919782,89.3358905 66.1554186,88.9803634 C67.1710608,82.7445885 58.7535975,74.806903 57.7887791,73.917847 C57.5983387,73.7400834 57.3444579,73.6257813 57.0904581,73.5876806 C56.7604012,73.5114792 56.4937847,73.2956149 56.3414324,73.0034302 C56.112904,72.5462218 55.8335518,71.0730344 58.0173075,67.4660887 C63.070285,59.1347754 57.7760434,54.8039164 57.7253386,54.7658157 C57.6872505,54.740455 57.6491625,54.727715 57.6238101,54.7023543 L58.8045403,47.6409848 C58.9188045,46.9551722 58.4490119,46.2947204 57.7634267,46.1804183 C57.0778414,46.0661162 56.4176086,46.5360645 56.3033443,47.2218771 L55.0591738,54.600673 C51.2122787,54.9689401 49.1427873,55.9722982 48.0382333,56.886715 C46.9336793,55.9595583 44.8641878,54.9689401 41.0046761,54.6134129 L39.7603865,47.2346171 C39.6461223,46.5488045 38.9858894,46.0788561 38.3003042,46.1931582 C37.6147189,46.3074603 37.1449264,46.9679122 37.2591906,47.6537248 L38.4399208,54.7150942 C38.4018327,54.740455 38.3637446,54.7531949 38.3383922,54.7785557 C38.2875685,54.8166564 32.9807102,59.1601362 38.0464234,67.4788287 C40.2047077,71.0475545 39.9508269,72.520861 39.7350341,72.9906902 C39.5826819,73.2954958 39.3033297,73.5241 38.9732728,73.6003014 C38.7066563,73.6384021 38.4653922,73.7527042 38.2749518,73.9304678 C37.3100144,74.8195238 28.892551,82.7570903 29.9083122,88.9929842 C29.959136,89.3486304 30.1749287,89.6787968 30.4796333,89.8693003 L31.1652185,90.3137688 C28.8037582,92.9935577 26.2645933,97.9339088 28.7529344,103.268007 C28.8671987,103.509351 29.0449033,103.699854 29.2734317,103.826777 C29.5146958,103.953819 35.1898182,107.141538 48.0381143,107.141538 C60.8864103,107.141538 66.5616517,103.953819 66.7901801,103.814037 C67.0187085,103.686995 67.1964132,103.483871 67.3106774,103.255267 C69.7991376,97.908548 67.2727083,92.9681969 64.8985123,90.288408 Z M65.1778645,101.794819 C63.8320464,102.429791 58.4743643,104.601531 48.0382333,104.601531 C37.6782784,104.601531 32.2444202,102.417051 30.8858663,101.782079 C28.4735823,95.9145717 33.7805596,91.2409255 34.009088,91.050422 C34.542321,90.5932136 34.6057614,89.7930989 34.1487046,89.2596891 C34.0725285,89.1707478 33.971,89.0819255 33.8693524,89.018345 L32.3585653,88.0530876 C32.2315654,84.0397742 37.3861905,78.2739476 39.7476508,76.0260063 C40.7379406,75.7465615 41.5631425,75.048128 42.0075826,74.1209713 C42.9089606,72.2412971 42.3250229,69.6504495 40.2174433,66.157925 C37.0180455,60.8746676 38.8462728,57.9535346 39.6207699,57.0518577 C45.7910372,57.3694033 46.7940627,59.2489584 46.8066794,59.2489584 C46.9462959,59.807729 47.4414408,60.2014759 48.0127619,60.2268367 C48.5713472,60.2395766 49.0792278,59.8839304 49.2188444,59.3377807 C49.2315801,59.3124199 50.1583104,57.381905 56.4302252,57.0517387 C57.2047223,57.9407947 59.0455663,60.8745486 55.8335518,66.157806 C53.7259723,69.6377096 53.1292989,72.241178 54.0306769,74.1081123 C54.474998,75.0352691 55.3003188,75.7337025 56.2906087,76.0131473 C58.652069,78.2483487 63.806694,84.0270342 63.6796941,88.0402286 L62.168907,89.005486 C61.5848503,89.386493 61.4071457,90.1738678 61.7880263,90.7581182 C61.8514668,90.8596804 61.9403786,90.9613616 62.0292905,91.037563 C62.1180833,91.1012626 67.615501,95.8892109 65.1778645,101.794819 Z" id="Shape" fill="#03264B" fill-rule="nonzero"></path>
                    <path d="M47.7645378,28.0685208 L47.7645378,17.0635973 L51.7892613,16.9604329 C54.7331948,16.4254819 56.9639058,13.8739214 56.9639058,10.8069449 C56.9639058,7.35149127 54.1323014,4.5502926 50.6393403,4.5502926 C47.1463792,4.5502926 44.3147748,7.35149127 44.3147748,10.8069449 L39.7150908,10.8069449 C39.7150908,4.83843406 44.6060439,0 50.6393403,0 C56.6726367,0 61.5635898,4.83843406 61.5635898,10.8069449 C61.5635898,15.7912028 58.1527406,19.9873685 53.5141428,21.2357835 L53.5141428,27.9851227 C54.9128486,28.2261877 46.5309948,28.3210423 47.7645378,28.0685208 Z" id="Combined-Shape-Copy-2" fill="#03264B"></path>
                    <path d="M64.19067,123.342391 L80.8155917,213.88587" id="Line-Copy-3" stroke="url(#linearGradient-3)" stroke-width="3" stroke-linecap="square"></path>
                </g>
                <g id="Group-3" transform="translate(177.006262, 167.228261)">
                    <ellipse id="Oval-Copy-3" stroke="#03264B" stroke-width="4" fill="#9AD1B4" cx="45.2567314" cy="72.9891304" rx="44.794928" ry="44.8097826"></ellipse>
                    <path d="M73.6398443,73.7170299 L38.9123533,59.8487334 C38.2424941,59.5797485 37.5082696,59.9294414 37.2506873,60.6289535 C37.1991225,60.7768763 37.1604791,60.9382924 37.1604791,61.113202 C37.1604791,62.471746 35.0350923,63.8572767 30.2948761,63.8572767 C26.5078234,63.8572767 23.4292731,62.4583787 23.4292731,60.7500156 C23.4292731,60.0101495 22.8496222,59.4048389 22.1411197,59.4048389 L19.0882914,59.4048389 C16.4476192,59.3913455 14.7473098,61.3283395 14.7473098,64.3145385 L14.7473098,84.9489465 C14.7473098,85.6888126 15.3269607,86.2941232 16.0354632,86.2941232 L75.2887097,86.2941232 C75.9972122,86.2941232 76.5768631,85.6888126 76.5768631,84.9489465 L76.5768631,77.1067693 C76.5767423,75.5868091 75.5849354,74.4434026 73.6398443,73.7170299 Z M61.0420974,71.5782657 L72.7381248,76.2458411 C73.3693405,76.4744719 73.7042097,76.6897355 73.8717047,76.8780123 L46.9501795,76.8780123 C46.9759015,75.7480992 47.1691185,75.5328356 48.6375675,75.5328356 L56.7913239,75.5328356 C58.5302767,75.5329617 60.2949515,73.448045 61.0420974,71.5782657 Z M17.3234959,64.3145385 C17.3234959,62.0815729 18.6116493,62.0815729 19.0881707,62.0815729 L21.0719052,62.0815729 C21.9607033,64.7584329 25.5029743,66.5340107 30.2947553,66.5340107 C36.3617684,66.5340107 38.5515206,64.5431693 39.3243885,62.902147 L44.2964651,64.8929884 L42.6477205,66.5475041 C42.1324349,67.0586132 42.1196343,67.9195414 42.6090771,68.444144 C43.0985198,68.9687465 43.9229525,68.9956072 44.4253166,68.484498 L46.9500587,65.9556868 L48.7147335,66.6551989 L47.7486486,67.5968352 C47.2592059,68.1349311 47.2720065,68.982366 47.787292,69.4934751 C48.2639342,69.9642302 49.0109593,69.991217 49.5133234,69.5473226 L51.3812486,67.7042779 L58.6591283,70.6097688 C58.2597729,71.5647724 57.2550447,72.7753936 56.7913239,72.829241 L48.6375675,72.829241 C46.8470499,72.829241 44.4770022,73.2596421 44.3738726,76.864645 L25.3742435,76.864645 C24.7688706,72.6946855 21.316687,69.0763152 17.3234959,68.4171572 L17.3234959,64.3145385 Z M17.3234959,71.1478647 C19.9255248,71.7666687 22.1925637,74.1475571 22.7592932,76.8781384 L17.3234959,76.8781384 L17.3234959,71.1478647 Z M17.3234959,83.6037698 L17.3234959,79.5683658 L74.0004355,79.5683658 L74.0004355,83.6037698 L17.3234959,83.6037698 Z" id="Shape" fill="#03264B" fill-rule="nonzero" transform="translate(45.662086, 72.849446) scale(-1, 1) rotate(14.000000) translate(-45.662086, -72.849446) "></path>
                    <path d="M43.146504,28.0685208 L43.146504,17.0635973 L47.1712275,16.9604329 C50.115161,16.4254819 52.345872,13.8739214 52.345872,10.8069449 C52.345872,7.35149127 49.5142676,4.5502926 46.0213065,4.5502926 C42.5283454,4.5502926 39.696741,7.35149127 39.696741,10.8069449 L35.097057,10.8069449 C35.097057,4.83843406 39.9880101,0 46.0213065,0 C52.0546029,0 56.945556,4.83843406 56.945556,10.8069449 C56.945556,15.7912028 53.5347068,19.9873685 48.896109,21.2357835 L48.896109,27.9851227 C50.2948148,28.2261877 41.912961,28.3210423 43.146504,28.0685208 Z" id="Combined-Shape-Copy" fill="#03264B"></path>
                    <path d="M74.3503444,107.740395 L104.829368,161.222826" id="Line-Copy-4" stroke="url(#linearGradient-3)" stroke-width="3" stroke-linecap="square"></path>
                </g>
            </g>
        </g>
    </g>
</svg>